<?xml version="1.0" encoding="UTF-8" standalone="no"?>
<!DOCTYPE svg PUBLIC "-//W3C//DTD SVG 1.1//EN"
 "http://www.w3.org/Graphics/SVG/1.1/DTD/svg11.dtd">
<!-- Generated by graphviz version 2.38.0 (20140413.2041)
 -->
<!-- Title: Tree Pages: 1 -->
<svg width="466pt" height="239pt"
 viewBox="0.00 0.00 466.00 239.00" xmlns="http://www.w3.org/2000/svg" xmlns:xlink="http://www.w3.org/1999/xlink">
<g id="graph0" class="graph" transform="scale(1 1) rotate(0) translate(4 235)">
<title>Tree</title>
<polygon fill="white" stroke="none" points="-4,4 -4,-235 462,-235 462,4 -4,4"/>
<!-- 0 -->
<g id="node1" class="node"><title>0</title>
<polygon fill="none" stroke="black" points="295.5,-231 161.5,-231 161.5,-178 295.5,-178 295.5,-231"/>
<text text-anchor="middle" x="228.5" y="-215.8" font-family="Times,serif" font-size="14.00">P(C) = 1.0</text>
<text text-anchor="middle" x="228.5" y="-200.8" font-family="Times,serif" font-size="14.00">{A, B, C, D}</text>
<text text-anchor="middle" x="228.5" y="-185.8" font-family="Times,serif" font-size="14.00">{00, 01, 10, 11}</text>
</g>
<!-- 1 -->
<g id="node2" class="node"><title>1</title>
<polygon fill="none" stroke="black" points="215.5,-142 123.5,-142 123.5,-89 215.5,-89 215.5,-142"/>
<text text-anchor="middle" x="169.5" y="-126.8" font-family="Times,serif" font-size="14.00">P(C) = 0.6</text>
<text text-anchor="middle" x="169.5" y="-111.8" font-family="Times,serif" font-size="14.00">{A, B}</text>
<text text-anchor="middle" x="169.5" y="-96.8" font-family="Times,serif" font-size="14.00">{00, 01}</text>
</g>
<!-- 0&#45;&gt;1 -->
<g id="edge1" class="edge"><title>0&#45;&gt;1</title>
<path fill="none" stroke="black" d="M211.117,-177.868C205.347,-169.359 198.829,-159.747 192.692,-150.698"/>
<polygon fill="black" stroke="black" points="195.472,-148.562 186.962,-142.25 189.678,-152.491 195.472,-148.562"/>
<text text-anchor="middle" x="182.254" y="-163.102" font-family="Times,serif" font-size="14.00">0</text>
</g>
<!-- 4 -->
<g id="node5" class="node"><title>4</title>
<polygon fill="none" stroke="black" points="334.5,-142 242.5,-142 242.5,-89 334.5,-89 334.5,-142"/>
<text text-anchor="middle" x="288.5" y="-126.8" font-family="Times,serif" font-size="14.00">P(C) = 0.4</text>
<text text-anchor="middle" x="288.5" y="-111.8" font-family="Times,serif" font-size="14.00">{C, D}</text>
<text text-anchor="middle" x="288.5" y="-96.8" font-family="Times,serif" font-size="14.00">{10, 11}</text>
</g>
<!-- 0&#45;&gt;4 -->
<g id="edge4" class="edge"><title>0&#45;&gt;4</title>
<path fill="none" stroke="black" d="M246.177,-177.868C252.045,-169.359 258.674,-159.747 264.915,-150.698"/>
<polygon fill="black" stroke="black" points="267.945,-152.469 270.742,-142.25 262.183,-148.495 267.945,-152.469"/>
<text text-anchor="middle" x="275.258" y="-163.138" font-family="Times,serif" font-size="14.00">1</text>
</g>
<!-- 2 -->
<g id="node3" class="node"><title>2</title>
<polygon fill="none" stroke="black" points="101,-53 0,-53 0,-0 101,-0 101,-53"/>
<text text-anchor="middle" x="50.5" y="-37.8" font-family="Times,serif" font-size="14.00">P(C) = 0.36</text>
<text text-anchor="middle" x="50.5" y="-22.8" font-family="Times,serif" font-size="14.00">{A}</text>
<text text-anchor="middle" x="50.5" y="-7.8" font-family="Times,serif" font-size="14.00">{00}</text>
</g>
<!-- 1&#45;&gt;2 -->
<g id="edge2" class="edge"><title>1&#45;&gt;2</title>
<path fill="none" stroke="black" d="M134.44,-88.8677C121.722,-79.5699 107.201,-68.954 93.8536,-59.1955"/>
<polygon fill="black" stroke="black" points="95.8593,-56.3262 85.7209,-53.2497 91.7279,-61.9771 95.8593,-56.3262"/>
<text text-anchor="middle" x="89.5584" y="-74.2535" font-family="Times,serif" font-size="14.00">0</text>
</g>
<!-- 3 -->
<g id="node4" class="node"><title>3</title>
<polygon fill="none" stroke="black" points="220,-53 119,-53 119,-0 220,-0 220,-53"/>
<text text-anchor="middle" x="169.5" y="-37.8" font-family="Times,serif" font-size="14.00">P(C) = 0.24</text>
<text text-anchor="middle" x="169.5" y="-22.8" font-family="Times,serif" font-size="14.00">{B}</text>
<text text-anchor="middle" x="169.5" y="-7.8" font-family="Times,serif" font-size="14.00">{01}</text>
</g>
<!-- 1&#45;&gt;3 -->
<g id="edge3" class="edge"><title>1&#45;&gt;3</title>
<path fill="none" stroke="black" d="M169.5,-88.8677C169.5,-80.8856 169.5,-71.9321 169.5,-63.3836"/>
<polygon fill="black" stroke="black" points="173,-63.2497 169.5,-53.2497 166,-63.2498 173,-63.2497"/>
<text text-anchor="middle" x="151.822" y="-67.2274" font-family="Times,serif" font-size="14.00">1</text>
</g>
<!-- 5 -->
<g id="node6" class="node"><title>5</title>
<polygon fill="none" stroke="black" points="339,-53 238,-53 238,-0 339,-0 339,-53"/>
<text text-anchor="middle" x="288.5" y="-37.8" font-family="Times,serif" font-size="14.00">P(C) = 0.24</text>
<text text-anchor="middle" x="288.5" y="-22.8" font-family="Times,serif" font-size="14.00">{C}</text>
<text text-anchor="middle" x="288.5" y="-7.8" font-family="Times,serif" font-size="14.00">{10}</text>
</g>
<!-- 4&#45;&gt;5 -->
<g id="edge5" class="edge"><title>4&#45;&gt;5</title>
<path fill="none" stroke="black" d="M288.5,-88.8677C288.5,-80.8856 288.5,-71.9321 288.5,-63.3836"/>
<polygon fill="black" stroke="black" points="292,-63.2497 288.5,-53.2497 285,-63.2498 292,-63.2497"/>
<text text-anchor="middle" x="270.822" y="-67.2274" font-family="Times,serif" font-size="14.00">0</text>
</g>
<!-- 6 -->
<g id="node7" class="node"><title>6</title>
<polygon fill="none" stroke="black" points="458,-53 357,-53 357,-0 458,-0 458,-53"/>
<text text-anchor="middle" x="407.5" y="-37.8" font-family="Times,serif" font-size="14.00">P(C) = 0.16</text>
<text text-anchor="middle" x="407.5" y="-22.8" font-family="Times,serif" font-size="14.00">{D}</text>
<text text-anchor="middle" x="407.5" y="-7.8" font-family="Times,serif" font-size="14.00">{11}</text>
</g>
<!-- 4&#45;&gt;6 -->
<g id="edge6" class="edge"><title>4&#45;&gt;6</title>
<path fill="none" stroke="black" d="M323.56,-88.8677C336.278,-79.5699 350.799,-68.954 364.146,-59.1955"/>
<polygon fill="black" stroke="black" points="366.272,-61.9771 372.279,-53.2497 362.141,-56.3262 366.272,-61.9771"/>
<text text-anchor="middle" x="368.442" y="-74.2535" font-family="Times,serif" font-size="14.00">1</text>
</g>
</g>
</svg>
