<?xml version="1.0" encoding="UTF-8" standalone="no"?>
<!-- Created with Inkscape (http://www.inkscape.org/) -->

<svg
   xmlns:dc="http://purl.org/dc/elements/1.1/"
   xmlns:cc="http://creativecommons.org/ns#"
   xmlns:rdf="http://www.w3.org/1999/02/22-rdf-syntax-ns#"
   xmlns:svg="http://www.w3.org/2000/svg"
   xmlns="http://www.w3.org/2000/svg"
   xmlns:sodipodi="http://sodipodi.sourceforge.net/DTD/sodipodi-0.dtd"
   xmlns:inkscape="http://www.inkscape.org/namespaces/inkscape"
   id="svg2985"
   version="1.1"
   inkscape:version="0.91 r13725"
   width="819.17505"
   height="486.43665"
   xml:space="preserve"
   sodipodi:docname="gmm.model.svg"><metadata
     id="metadata2991"><rdf:RDF><cc:Work
         rdf:about=""><dc:format>image/svg+xml</dc:format><dc:type
           rdf:resource="http://purl.org/dc/dcmitype/StillImage" /><dc:title></dc:title></cc:Work></rdf:RDF></metadata><defs
     id="defs2989"><inkscape:path-effect
   effect="spiro"
   id="path-effect5303"
   is_visible="true" /><inkscape:path-effect
   effect="spiro"
   id="path-effect5103"
   is_visible="true" /><marker
   inkscape:stockid="Arrow2Mstart"
   orient="auto"
   refY="0"
   refX="0"
   id="Arrow2Mstart"
   style="overflow:visible"><path
     id="path4799"
     style="fill-rule:evenodd;stroke-width:0.625;stroke-linejoin:round"
     d="M 8.7185878,4.0337352 -2.2072895,0.01601326 8.7185884,-4.0017078 c -1.7454984,2.3720609 -1.7354408,5.6174519 -6e-7,8.035443 z"
     transform="scale(0.6,0.6)"
     inkscape:connector-curvature="0" /></marker><marker
   inkscape:stockid="Arrow1Mend"
   orient="auto"
   refY="0"
   refX="0"
   id="Arrow1Mend"
   style="overflow:visible"><path
     id="path4209"
     d="M 0,0 5,-5 -12.5,0 5,5 0,0 Z"
     style="fill-rule:evenodd;stroke:#000000;stroke-width:1pt"
     transform="matrix(-0.4,0,0,-0.4,-4,0)"
     inkscape:connector-curvature="0" /></marker><marker
   inkscape:stockid="Arrow1Mstart"
   orient="auto"
   refY="0"
   refX="0"
   id="Arrow1Mstart"
   style="overflow:visible"><path
     id="path4206"
     d="M 0,0 5,-5 -12.5,0 5,5 0,0 Z"
     style="fill-rule:evenodd;stroke:#000000;stroke-width:1pt"
     transform="matrix(0.4,0,0,0.4,4,0)"
     inkscape:connector-curvature="0" /></marker><marker
   inkscape:stockid="Arrow1Sstart"
   orient="auto"
   refY="0"
   refX="0"
   id="Arrow1Sstart"
   style="overflow:visible"><path
     id="path4212"
     d="M 0,0 5,-5 -12.5,0 5,5 0,0 Z"
     style="fill-rule:evenodd;stroke:#000000;stroke-width:1pt"
     transform="matrix(0.2,0,0,0.2,1.2,0)"
     inkscape:connector-curvature="0" /></marker><clipPath
   clipPathUnits="userSpaceOnUse"
   id="clipPath3001"><path
     d="m 0,6.76953 8550,0 0,5409.99997 -8550,0 L 0,6.76953 Z"
     id="path3003"
     inkscape:connector-curvature="0" /></clipPath>

<marker
   inkscape:stockid="Arrow2Mend"
   orient="auto"
   refY="0"
   refX="0"
   id="Arrow2Mend"
   style="overflow:visible"><path
     id="path3794"
     style="fill-rule:evenodd;stroke-width:0.625;stroke-linejoin:round"
     d="M 8.7185878,4.0337352 -2.2072895,0.01601326 8.7185884,-4.0017078 c -1.7454984,2.3720609 -1.7354408,5.6174519 -6e-7,8.035443 z"
     transform="scale(-0.6,-0.6)"
     inkscape:connector-curvature="0" /></marker><inkscape:path-effect
   effect="spiro"
   id="path-effect3761"
   is_visible="true" /><marker
   inkscape:stockid="Arrow2Mend"
   orient="auto"
   refY="0"
   refX="0"
   id="Arrow2Mend-7-6"
   style="overflow:visible"><path
     inkscape:connector-curvature="0"
     id="path3794-9-5"
     style="fill-rule:evenodd;stroke-width:0.625;stroke-linejoin:round"
     d="M 8.7185878,4.0337352 -2.2072895,0.01601326 8.7185884,-4.0017078 c -1.7454984,2.3720609 -1.7354408,5.6174519 -6e-7,8.035443 z"
     transform="scale(-0.6,-0.6)" /></marker><inkscape:path-effect
   effect="spiro"
   id="path-effect5951"
   is_visible="true" /><marker
   inkscape:stockid="Arrow2Mend"
   orient="auto"
   refY="0"
   refX="0"
   id="marker3227"
   style="overflow:visible"><path
     inkscape:connector-curvature="0"
     id="path3229"
     style="fill-rule:evenodd;stroke-width:0.625;stroke-linejoin:round"
     d="M 8.7185878,4.0337352 -2.2072895,0.01601326 8.7185884,-4.0017078 c -1.7454984,2.3720609 -1.7354408,5.6174519 -6e-7,8.035443 z"
     transform="scale(-0.6,-0.6)" /></marker><inkscape:path-effect
   effect="spiro"
   id="path-effect5951-4"
   is_visible="true" /><marker
   inkscape:stockid="Arrow2Mend"
   orient="auto"
   refY="0"
   refX="0"
   id="marker3232"
   style="overflow:visible"><path
     id="path3234"
     style="fill-rule:evenodd;stroke-width:0.625;stroke-linejoin:round"
     d="M 8.7185878,4.0337352 -2.2072895,0.01601326 8.7185884,-4.0017078 c -1.7454984,2.3720609 -1.7354408,5.6174519 -6e-7,8.035443 z"
     transform="scale(-0.6,-0.6)"
     inkscape:connector-curvature="0" /></marker><inkscape:path-effect
   effect="spiro"
   id="path-effect3761-6"
   is_visible="true" />




<inkscape:path-effect
   effect="spiro"
   id="path-effect5303-1"
   is_visible="true" /><marker
   inkscape:stockid="Arrow2Mend"
   orient="auto"
   refY="0"
   refX="0"
   id="Arrow2Mend-7-6-1"
   style="overflow:visible"><path
     inkscape:connector-curvature="0"
     id="path3794-9-5-1"
     style="fill-rule:evenodd;stroke-width:0.625;stroke-linejoin:round"
     d="M 8.7185878,4.0337352 -2.2072895,0.01601326 8.7185884,-4.0017078 c -1.7454984,2.3720609 -1.7354408,5.6174519 -6e-7,8.035443 z"
     transform="scale(-0.6,-0.6)" /></marker><inkscape:path-effect
   effect="spiro"
   id="path-effect5951-3"
   is_visible="true" /><marker
   inkscape:stockid="Arrow2Mend"
   orient="auto"
   refY="0"
   refX="0"
   id="marker6076"
   style="overflow:visible"><path
     inkscape:connector-curvature="0"
     id="path6078"
     style="fill-rule:evenodd;stroke-width:0.625;stroke-linejoin:round"
     d="M 8.7185878,4.0337352 -2.2072895,0.01601326 8.7185884,-4.0017078 c -1.7454984,2.3720609 -1.7354408,5.6174519 -6e-7,8.035443 z"
     transform="scale(-0.6,-0.6)" /></marker><inkscape:path-effect
   effect="spiro"
   id="path-effect5951-4-8"
   is_visible="true" />
<marker
   inkscape:stockid="Arrow2Mstart"
   orient="auto"
   refY="0"
   refX="0"
   id="Arrow2Mstart-1"
   style="overflow:visible"><path
     id="path4799-3"
     style="fill-rule:evenodd;stroke-width:0.625;stroke-linejoin:round"
     d="M 8.7185878,4.0337352 -2.2072895,0.01601326 8.7185884,-4.0017078 c -1.7454984,2.3720609 -1.7354408,5.6174519 -6e-7,8.035443 z"
     transform="scale(0.6,0.6)"
     inkscape:connector-curvature="0" /></marker><marker
   inkscape:stockid="Arrow2Mend"
   orient="auto"
   refY="0"
   refX="0"
   id="marker3232-5"
   style="overflow:visible"><path
     id="path3234-9"
     style="fill-rule:evenodd;stroke-width:0.625;stroke-linejoin:round"
     d="M 8.7185878,4.0337352 -2.2072895,0.01601326 8.7185884,-4.0017078 c -1.7454984,2.3720609 -1.7354408,5.6174519 -6e-7,8.035443 z"
     transform="scale(-0.6,-0.6)"
     inkscape:connector-curvature="0" /></marker><marker
   inkscape:stockid="Arrow2Mstart"
   orient="auto"
   refY="0"
   refX="0"
   id="Arrow2Mstart-15"
   style="overflow:visible"><path
     id="path4799-4"
     style="fill-rule:evenodd;stroke-width:0.625;stroke-linejoin:round"
     d="M 8.7185878,4.0337352 -2.2072895,0.01601326 8.7185884,-4.0017078 c -1.7454984,2.3720609 -1.7354408,5.6174519 -6e-7,8.035443 z"
     transform="scale(0.6,0.6)"
     inkscape:connector-curvature="0" /></marker><marker
   inkscape:stockid="Arrow2Mend"
   orient="auto"
   refY="0"
   refX="0"
   id="marker3232-2"
   style="overflow:visible"><path
     id="path3234-0"
     style="fill-rule:evenodd;stroke-width:0.625;stroke-linejoin:round"
     d="M 8.7185878,4.0337352 -2.2072895,0.01601326 8.7185884,-4.0017078 c -1.7454984,2.3720609 -1.7354408,5.6174519 -6e-7,8.035443 z"
     transform="scale(-0.6,-0.6)"
     inkscape:connector-curvature="0" /></marker></defs><sodipodi:namedview
     pagecolor="#ffffff"
     bordercolor="#666666"
     borderopacity="1"
     objecttolerance="10"
     gridtolerance="10"
     guidetolerance="10"
     inkscape:pageopacity="0"
     inkscape:pageshadow="2"
     inkscape:window-width="1286"
     inkscape:window-height="745"
     id="namedview2987"
     showgrid="false"
     fit-margin-top="0"
     fit-margin-left="0"
     fit-margin-right="0"
     fit-margin-bottom="0"
     inkscape:zoom="0.4429056"
     inkscape:cx="539.86834"
     inkscape:cy="55.422675"
     inkscape:window-x="66"
     inkscape:window-y="-8"
     inkscape:window-maximized="1"
     inkscape:current-layer="g2993" /><g
     id="g2993"
     inkscape:groupmode="layer"
     inkscape:label="ink_ext_XXXXXX"
     transform="matrix(1.25,0,0,-1.25,-9.5929474,756.9886)">




<g
   id="g4386"><g
     id="g4354"><g
       id="g4323"><text
         transform="scale(1,-1)"
         sodipodi:linespacing="125%"
         id="text5045"
         y="86.563278"
         x="589.18866"
         style="font-style:normal;font-variant:normal;font-weight:bold;font-stretch:normal;font-size:32px;line-height:125%;font-family:Monospace;-inkscape-font-specification:'Sans Bold';letter-spacing:0px;word-spacing:0px;fill:#000000;fill-opacity:1;stroke:none"
         xml:space="preserve"><tspan
           y="86.563278"
           x="589.18866"
           id="tspan5047"
           sodipodi:role="line" /></text>
<text
         transform="scale(1,-1)"
         sodipodi:linespacing="125%"
         id="text4998"
         y="156.02191"
         x="1884.1954"
         style="font-style:normal;font-variant:normal;font-weight:normal;font-stretch:normal;font-size:32px;line-height:125%;font-family:'Cambria Math';-inkscape-font-specification:'Cambria Math';letter-spacing:0px;word-spacing:0px;fill:#000000;fill-opacity:1;stroke:none"
         xml:space="preserve"><tspan
           y="156.02191"
           x="1884.1954"
           id="tspan5000"
           sodipodi:role="line" /></text>
<g
         id="g7082"><g
           id="g5564"
           transform="translate(-18.000534,63.020906)"><g
             transform="translate(1.854768,-2.7076917)"
             id="g4277"><g
               id="g4273"><path
                 d="m 55.426081,166.20932 c 12.247156,0 24.495063,0 36.745975,0 12.247154,0 24.498064,0 36.745974,0.003 12.24716,0.006 24.49807,0.009 36.74598,0.0472 12.24715,0.0376 24.49807,0.0963 36.74597,0.35478 12.24716,0.25826 24.49807,0.69544 36.74598,1.95133 12.25016,1.25612 24.49807,3.34799 36.74522,7.59062 12.25092,4.24362 24.49882,10.78996 36.74598,20.54321 12.25091,9.75326 24.49882,22.89356 36.74598,37.36795 12.25091,14.47514 24.49881,30.10258 36.74898,41.80439 12.2479,11.70255 24.49581,19.0235 36.74597,19.02876 12.24791,0.006 24.49582,-7.33222 36.74598,-19.02876 12.2479,-11.69279 24.49581,-27.32624 36.74597,-41.80439 12.24791,-14.47739 24.49807,-27.60853 36.74598,-37.36795 12.24791,-9.75911 24.49807,-16.29666 36.74597,-20.54321 12.24791,-4.24556 24.49807,-6.33157 36.74598,-7.59062"
                 style="fill:none;stroke:#000000;stroke-width:4;stroke-linecap:square;stroke-linejoin:miter;stroke-miterlimit:4;stroke-dasharray:12, 12;stroke-dashoffset:0;stroke-opacity:1"
                 id="path3023"
                 inkscape:connector-curvature="0" /><path
                 d="m 55.426081,166.33558 c 12.247156,0.1262 24.495063,0.2403 36.745975,1.76061 12.247154,1.52285 24.498064,4.2397 36.745974,14.05839 12.24716,9.82071 24.49807,27.76936 36.74598,60.28171 12.24715,32.5086 24.49807,81.15919 36.74597,130.06143 12.24716,48.89999 24.49807,94.75997 36.74598,109.77446 12.25016,15.01148 24.49807,-2.92808 36.74522,-41.90129 12.25092,-38.97622 24.49882,-94.83284 36.74598,-139.52249 12.25091,-44.6889 24.49882,-77.66998 36.74598,-97.20346 12.25091,-19.53348 24.49881,-27.35043 36.74898,-31.54349 12.2479,-4.19306 24.49581,-4.89465 36.74597,-5.36707 12.24791,-0.47482 24.49582,-0.46948 36.74598,-0.49885 12.2479,-0.0294 24.49581,-0.0261 36.74597,-0.0261 12.24791,0 24.49807,0 36.74598,0 12.24791,0 24.49807,0 36.74597,0 l 36.74598,0"
                 style="fill:none;stroke:#000000;stroke-width:4;stroke-linecap:square;stroke-linejoin:miter;stroke-miterlimit:4;stroke-dasharray:16, 8, 4, 8;stroke-dashoffset:0;stroke-opacity:1"
                 id="path3025"
                 inkscape:connector-curvature="0" /></g><path
               inkscape:connector-curvature="0"
               id="path3027"
               style="fill:none;stroke:#0000ff;stroke-width:4;stroke-linecap:square;stroke-linejoin:miter;stroke-miterlimit:4;stroke-dasharray:none;stroke-opacity:1"
               d="m 55.426081,166.20932 c 12.247156,0.1262 24.495063,0.2403 36.745975,1.76384 12.247154,1.51962 24.498064,4.23647 36.745974,14.06102 12.24716,9.82394 24.49807,27.77852 36.74598,60.32543 12.24715,32.54691 24.49807,81.25609 36.74597,130.41674 12.24716,49.15839 24.49807,95.45781 36.74598,111.726 12.25016,16.26745 24.49807,0.42216 36.74522,-34.31066 12.25092,-34.72983 24.49882,-84.04071 36.74598,-118.97935 12.25091,-34.93565 24.49882,-54.77944 36.74598,-59.8356 12.25091,-5.05841 24.49881,2.75531 36.74898,10.26406 12.2479,7.50574 24.49581,14.12584 36.74597,13.65936 12.24791,-0.46648 24.49582,-7.80546 36.74598,-19.52754 12.2479,-11.72284 24.49581,-27.35328 36.74597,-41.83143 12.24791,-14.47739 24.49807,-27.60853 36.74598,-37.36795 12.24791,-9.75911 24.49807,-16.29373 36.74597,-20.54321 12.24791,-4.24556 24.49807,-6.33157 36.74598,-7.59062" /></g><g
             transform="translate(-11.2,0)"
             id="g5552"><text
   xml:space="preserve"
   style="font-style:normal;font-variant:normal;font-weight:bold;font-stretch:normal;font-size:32px;line-height:125%;font-family:'Cambria Math';-inkscape-font-specification:'Sans Bold';letter-spacing:0px;word-spacing:0px;fill:#000000;fill-opacity:1;stroke:none"
   x="290.61099"
   y="-467.44714"
   id="text3560"
   sodipodi:linespacing="125%"
   transform="scale(1,-1)"><tspan
     sodipodi:role="line"
     id="tspan3562"
     x="290.61099"
     y="-467.44714">w<tspan
   style="font-size:20.80029297px;baseline-shift:sub"
   id="tspan3564">1</tspan>N(x|μ<tspan
   style="font-size:20.80029297px;baseline-shift:sub"
   id="tspan3566">1</tspan>,S<tspan
   style="font-size:20.80029297px;baseline-shift:sub"
   id="tspan3568">1</tspan>)</tspan></text>

<text
   xml:space="preserve"
   style="font-style:normal;font-variant:normal;font-weight:bold;font-stretch:normal;font-size:32px;line-height:125%;font-family:'Cambria Math';-inkscape-font-specification:'Sans Bold';letter-spacing:0px;word-spacing:0px;fill:#000000;fill-opacity:1;stroke:none"
   x="487.17908"
   y="-271.43115"
   id="text3560-1"
   sodipodi:linespacing="125%"
   transform="scale(1,-1)"><tspan
     sodipodi:role="line"
     id="tspan3562-7"
     x="487.17908"
     y="-271.43115">w<tspan
   style="font-size:20.80029297px;baseline-shift:sub"
   id="tspan3564-4">2</tspan>N(x|μ<tspan
   style="font-size:20.80029297px;baseline-shift:sub"
   id="tspan3566-0">2</tspan>,S<tspan
   style="font-size:20.80029297px;baseline-shift:sub"
   id="tspan3568-9">2</tspan>)</tspan></text>

</g></g><g
           id="g7024"><g
             id="g7018"><text
   xml:space="preserve"
   style="font-style:normal;font-variant:normal;font-weight:bold;font-stretch:normal;font-size:32px;line-height:125%;font-family:'Cambria Math';-inkscape-font-specification:'Sans Bold';letter-spacing:0px;word-spacing:0px;fill:#000000;fill-opacity:1;stroke:none"
   x="5.7837329"
   y="-583.01276"
   id="text3544"
   sodipodi:linespacing="125%"
   transform="scale(1,-1)"><tspan
     sodipodi:role="line"
     id="tspan3546"
     x="5.7837329"
     y="-583.01276">P(x)</tspan></text>

<text
   xml:space="preserve"
   style="font-style:normal;font-variant:normal;font-weight:bold;font-stretch:normal;font-size:32px;line-height:125%;font-family:'Cambria Math';-inkscape-font-specification:'Sans Bold';letter-spacing:0px;word-spacing:0px;fill:#000000;fill-opacity:1;stroke:none"
   x="647.90503"
   y="-218.44885"
   id="text3548"
   sodipodi:linespacing="125%"
   transform="scale(1,-1)"><tspan
     sodipodi:role="line"
     id="tspan3550"
     x="647.90503"
     y="-218.44885">x</tspan></text>

</g><path
             d="m 35.241882,566.79044 0,-340.6679 603.718188,0"
             style="fill:none;stroke:#000000;stroke-width:4;stroke-linecap:butt;stroke-linejoin:miter;stroke-miterlimit:4;stroke-dasharray:none;stroke-opacity:1;marker-start:url(#Arrow2Mstart);marker-end:url(#marker3232)"
             id="path3005-6"
             inkscape:connector-curvature="0" /></g></g></g></g></g></g></svg>