<?xml version="1.0" encoding="utf-8" standalone="no"?>
<!DOCTYPE svg PUBLIC "-//W3C//DTD SVG 1.1//EN"
  "http://www.w3.org/Graphics/SVG/1.1/DTD/svg11.dtd">
<!-- Created with matplotlib (http://matplotlib.org/) -->
<svg height="398pt" version="1.1" viewBox="0 0 417 398" width="417pt" xmlns="http://www.w3.org/2000/svg" xmlns:xlink="http://www.w3.org/1999/xlink">
 <defs>
  <style type="text/css">
*{stroke-linecap:butt;stroke-linejoin:round;}
  </style>
 </defs>
 <g id="figure_1">
  <g id="patch_1">
   <path d="
M0 398.194
L417.653 398.194
L417.653 0
L0 0
z
" style="fill:#ffffff;"/>
  </g>
  <g id="axes_1">
   <g id="patch_2">
    <path d="
M55.2169 358.639
L400.817 358.639
L400.817 13.0387
L55.2169 13.0387
z
" style="fill:#ffffff;"/>
   </g>
   <g id="line2d_1">
    <path clip-path="url(#p89137f74a4)" d="
M55.2169 49.0467
L76.0241 49.2691
L88.1955 49.4923
L103.53 49.9415
L117.638 50.6218
L127.198 51.3103
L136.508 52.2408
L143.604 53.1859
L149.34 54.1457
L155.244 55.3662
L160.177 56.61
L164.412 57.8772
L168.812 59.4289
L172.65 61.0147
L176.052 62.6344
L179.587 64.5672
L182.75 66.546
L185.998 68.8632
L188.929 71.2389
L191.599 73.6715
L193.457 75.5321
L196.318 78.699
L198.93 81.9429
L201.333 85.2568
L203.557 88.6319
L205.628 92.058
L207.566 95.5236
L211.101 102.52
L214.264 109.504
L217.125 116.346
L222.14 129.092
L226.435 139.898
L229.297 146.458
L231.063 150.088
L232.731 153.16
L234.311 155.723
L235.812 157.838
L237.242 159.564
L238.607 160.963
L240.544 162.563
L242.364 163.704
L244.08 164.511
L246.225 165.227
L248.707 165.753
L251.438 166.081
L255.118 166.287
L261.663 166.387
L339.573 166.877
L347.626 167.145
L352.504 167.503
L355.365 167.886
L357.977 168.467
L360.38 169.359
L361.513 169.976
L362.604 170.743
L363.658 171.698
L364.675 172.884
L365.66 174.354
L366.613 176.164
L367.537 178.376
L368.433 181.042
L369.303 184.196
L370.149 187.831
L371.772 196.274
L374.052 210.12
L376.172 223.845
L377.507 233.563
L378.784 244.844
L380.01 258.444
L381.759 282.132
L383.412 304.649
L384.465 316.644
L385.483 325.87
L386.467 332.726
L387.42 337.775
L388.344 341.516
L389.24 344.329
L390.11 346.479
L391.37 348.855
L392.579 350.55
L393.741 351.802
L395.224 353.022
L396.636 353.905
L398.314 354.71
L400.515 355.491
L400.817 355.58
L400.817 355.58" style="fill:none;stroke:#aa0000;stroke-linecap:square;stroke-width:2;"/>
   </g>
   <g id="line2d_2">
    <path clip-path="url(#p89137f74a4)" d="
M55.2169 96.1364
L76.0241 96.4553
L96.8313 97.0938
L109.003 97.733
L117.638 98.3729
L127.198 99.3339
L134.437 100.296
L140.266 101.259
L146.609 102.543
L151.842 103.827
L157.315 105.431
L161.943 107.033
L165.951 108.629
L170.147 110.538
L174.399 112.749
L178.123 114.94
L181.88 117.414
L185.611 120.15
L189.276 123.122
L193.155 126.578
L196.318 129.625
L201.333 134.829
L207.566 141.73
L214.264 149.14
L218.46 153.412
L220.962 155.716
L223.273 157.638
L226.435 159.913
L229.297 161.598
L231.909 162.832
L234.311 163.727
L237.242 164.544
L240.544 165.167
L244.08 165.575
L248.707 165.85
L255.878 166.002
L319.224 166.784
L329.839 167.169
L334.558 167.48
L339.573 168.058
L341.797 168.471
L343.868 169.001
L345.806 169.684
L347.626 170.562
L349.341 171.68
L350.964 173.092
L352.504 174.853
L353.969 177.021
L355.365 179.65
L356.7 182.783
L357.977 186.437
L359.202 190.585
L360.38 195.15
L362.604 205.042
L365.66 220.321
L367.537 230.771
L369.303 242.254
L370.971 255.428
L372.551 270.016
L376.172 305.07
L377.507 316.298
L378.784 325.39
L380.01 332.395
L381.187 337.628
L382.32 341.499
L383.412 344.385
L384.465 346.569
L385.483 348.254
L386.947 350.137
L388.344 351.502
L389.678 352.525
L391.37 353.539
L393.358 354.444
L395.583 355.204
L398.314 355.892
L400.817 356.364
L400.817 356.364" style="fill:none;stroke:#aa0000;stroke-linecap:square;stroke-width:2;"/>
   </g>
   <g id="line2d_3">
    <path clip-path="url(#p89137f74a4)" d="
M55.2169 96.1003
L76.0241 96.4579
L96.8313 97.174
L109.003 97.891
L117.638 98.6088
L127.198 99.6865
L134.437 100.765
L140.266 101.845
L146.609 103.284
L151.842 104.722
L156.298 106.158
L161.073 107.949
L165.191 109.733
L169.487 111.861
L173.244 113.971
L177.105 116.407
L180.984 119.147
L184.821 122.165
L188.578 125.423
L192.543 129.181
L196.318 133.042
L201.333 138.506
L212.724 151.151
L215.729 154.168
L218.46 156.666
L220.962 158.71
L223.273 160.366
L225.418 161.698
L228.373 163.207
L231.063 164.272
L233.532 165.016
L236.536 165.669
L239.912 166.141
L244.08 166.461
L249.645 166.633
L261.037 166.694
L327.86 166.878
L341.797 167.086
L349.341 167.367
L353.969 167.718
L356.7 168.068
L359.202 168.565
L361.513 169.283
L363.658 170.34
L364.675 171.048
L365.66 171.916
L366.613 172.981
L367.537 174.29
L368.433 175.895
L369.303 177.857
L370.149 180.231
L370.971 183.061
L371.772 186.359
L373.311 194.171
L375.482 207.229
L380.01 235.164
L381.187 244.809
L381.759 250.982
L382.871 267.059
L385.483 311.053
L386.467 322.929
L387.42 331.261
L388.344 337.053
L389.24 341.146
L390.11 344.117
L390.956 346.333
L391.778 348.03
L392.971 349.919
L394.118 351.288
L395.583 352.602
L396.98 353.547
L398.638 354.402
L400.515 355.131
L400.817 355.23
L400.817 355.23" style="fill:none;stroke:#aa0000;stroke-linecap:square;stroke-width:2;"/>
   </g>
   <g id="line2d_4">
    <path clip-path="url(#p89137f74a4)" d="
M55.2169 123.745
L76.0241 124.047
L96.8313 124.647
L109.003 125.244
L121.174 126.131
L129.81 127.01
L138.446 128.167
L145.144 129.306
L151.842 130.705
L157.315 132.076
L162.789 133.68
L168.122 135.495
L173.244 137.492
L178.123 139.638
L183.176 142.111
L188.578 145.019
L193.457 147.839
L209.386 157.321
L214.264 159.864
L218.46 161.746
L222.14 163.119
L225.418 164.113
L229.297 165.015
L232.731 165.592
L237.242 166.088
L242.364 166.392
L249.645 166.563
L268.05 166.67
L297.493 166.933
L312.639 167.27
L321.416 167.675
L327.169 168.157
L331.09 168.687
L331.697 168.792
L334.558 169.398
L337.17 170.171
L339.573 171.149
L341.797 172.378
L343.868 173.904
L345.806 175.776
L347.626 178.042
L349.341 180.741
L350.964 183.894
L352.504 187.486
L353.969 191.461
L355.365 195.721
L357.977 204.639
L360.38 213.56
L362.604 222.453
L364.675 231.927
L365.66 237.197
L366.613 243.022
L367.537 249.532
L368.433 256.798
L370.149 273.317
L373.311 306.487
L374.776 318.91
L376.172 328.034
L377.507 334.569
L378.784 339.264
L380.01 342.694
L381.187 345.255
L382.32 347.209
L383.412 348.733
L384.978 350.457
L386.467 351.724
L388.344 352.955
L390.11 353.846
L392.181 354.657
L394.86 355.445
L397.986 356.114
L400.817 356.564
L400.817 356.564" style="fill:none;stroke:#aa0000;stroke-linecap:square;stroke-width:2;"/>
   </g>
   <g id="line2d_5">
    <path clip-path="url(#p89137f74a4)" d="
M55.2169 88.8977
L76.0241 89.2529
L96.8313 89.9649
L109.003 90.6791
L117.638 91.3952
L127.198 92.473
L134.437 93.5548
L140.266 94.6401
L146.609 96.092
L151.842 97.5486
L156.298 99.0089
L161.073 100.838
L165.191 102.669
L168.812 104.499
L172.65 106.692
L176.052 108.878
L179.587 111.413
L183.176 114.282
L186.758 117.463
L190.294 120.924
L193.457 124.289
L198.93 130.67
L203.557 136.498
L212.724 148.268
L215.729 151.844
L218.46 154.828
L220.962 157.283
L223.273 159.278
L225.418 160.884
L227.42 162.165
L230.193 163.606
L232.731 164.613
L235.071 165.311
L237.932 165.917
L241.163 166.351
L245.172 166.642
L251 166.809
L262.577 166.889
L293.484 167.137
L309.032 167.47
L318.765 167.889
L325.371 168.386
L330.157 168.955
L331.697 169.197
L334.558 169.757
L337.17 170.438
L339.573 171.268
L341.797 172.286
L343.868 173.534
L345.806 175.066
L347.626 176.941
L349.341 179.221
L350.964 181.964
L352.504 185.211
L353.969 188.968
L355.365 193.193
L356.7 197.789
L359.202 207.482
L362.604 220.903
L364.675 228.061
L366.613 233.723
L368.433 238.138
L370.149 241.589
L371.772 244.315
L373.311 246.497
L374.776 248.269
L376.847 250.361
L378.784 251.966
L381.187 253.591
L383.412 254.815
L385.979 255.969
L388.795 256.992
L392.181 257.968
L395.938 258.813
L400.515 259.599
L400.817 259.643
L400.817 259.643" style="fill:none;stroke:#aa0000;stroke-linecap:square;stroke-width:2;"/>
   </g>
   <g id="line2d_6">
    <path clip-path="url(#p89137f74a4)" d="
M55.2169 48.9745
L76.0241 49.137
L88.1955 49.303
L109.003 49.813
L121.174 50.3354
L132.213 51.0474
L140.266 51.7753
L148.005 52.7061
L154.153 53.6589
L160.177 54.8303
L165.191 56.0309
L170.147 57.4669
L174.399 58.9391
L178.123 60.4456
L181.88 62.207
L185.219 64.0081
L188.578 66.0783
L191.599 68.1912
L193.457 69.6217
L196.318 72.0408
L198.93 74.499
L201.333 76.9907
L203.557 79.5106
L205.628 82.0534
L209.386 87.1911
L212.724 92.3768
L215.729 97.5786
L218.46 102.759
L222.14 110.398
L225.418 117.754
L231.909 133.11
L235.812 142.069
L238.607 147.921
L240.544 151.566
L242.364 154.619
L244.08 157.136
L245.703 159.18
L247.243 160.816
L248.707 162.107
L250.555 163.395
L252.296 164.299
L253.941 164.921
L255.878 165.424
L258.396 165.811
L261.663 166.049
L265.438 166.161
L296.54 166.578
L313.2 166.888
L318.3 167.171
L321.836 167.587
L324.238 168.096
L326.104 168.712
L327.86 169.562
L329.194 170.447
L330.471 171.546
L331.697 172.886
L334.558 177.463
L337.17 184.001
L339.573 192.373
L341.797 202.019
L347.626 231.104
L349.341 238.579
L350.964 244.447
L352.504 248.862
L353.969 252.109
L355.365 254.479
L356.7 256.211
L357.977 257.48
L359.202 258.413
L360.38 259.103
L362.604 260.005
L364.675 260.536
L367.537 261.002
L371.772 261.415
L378.152 261.775
L388.344 262.091
L400.817 262.304
L400.817 262.304" style="fill:none;stroke:#0000aa;stroke-linecap:square;stroke-width:2;"/>
   </g>
   <g id="line2d_7">
    <path clip-path="url(#p89137f74a4)" d="
M55.2169 95.9558
L76.0241 96.1124
L88.1955 96.2736
L109.003 96.7683
L121.174 97.2719
L132.213 97.9515
L141.981 98.8106
L149.34 99.6784
L156.298 100.729
L161.943 101.789
L167.416 103.035
L172.65 104.47
L177.105 105.913
L181.435 107.545
L185.611 109.365
L189.62 111.373
L193.155 113.387
L196.318 115.403
L198.93 117.235
L203.557 120.886
L207.566 124.499
L211.101 128.046
L214.264 131.501
L218.46 136.448
L224.364 143.877
L230.193 151.148
L233.532 154.94
L235.812 157.256
L237.932 159.161
L239.912 160.699
L241.77 161.922
L244.08 163.147
L246.225 164.011
L248.707 164.726
L251.438 165.233
L254.731 165.58
L259.414 165.817
L276.686 166.297
L290.082 166.819
L296.54 167.293
L300.183 167.746
L303.431 168.367
L305.656 168.978
L307.727 169.744
L309.664 170.688
L311.484 171.837
L313.2 173.208
L314.823 174.818
L316.363 176.676
L317.827 178.785
L319.224 181.141
L320.99 184.65
L322.658 188.547
L324.238 192.788
L326.104 198.507
L327.86 204.601
L329.839 212.268
L331.697 220.153
L334.558 233.437
L337.17 246.654
L339.573 259.702
L343.868 284.8
L347.626 306.921
L349.341 316.255
L350.964 324.289
L352.504 331.045
L353.969 336.617
L355.365 341.144
L356.7 344.776
L357.977 347.664
L359.202 349.945
L360.38 351.741
L361.513 353.154
L362.604 354.269
L363.658 355.151
L365.66 356.41
L367.537 357.209
L369.303 357.715
L371.772 358.143
L374.776 358.392
L380.01 358.535
L394.491 358.609
L400.817 358.618
L400.817 358.618" style="fill:none;stroke:#0000aa;stroke-linecap:square;stroke-width:2;"/>
   </g>
   <g id="line2d_8">
    <path clip-path="url(#p89137f74a4)" d="
M55.2169 95.894
L76.0241 96.0658
L88.1955 96.243
L103.53 96.6049
L117.638 97.1581
L129.81 97.9078
L138.446 98.6672
L146.609 99.6275
L153.02 100.598
L159.253 101.775
L164.412 102.963
L169.487 104.36
L173.827 105.767
L178.123 107.383
L182.318 109.208
L186.381 111.239
L189.959 113.267
L193.457 115.488
L196.318 117.491
L201.333 121.433
L205.628 125.261
L209.386 128.948
L214.264 134.161
L219.737 140.442
L230.193 152.6
L233.532 156.133
L236.536 158.976
L239.267 161.194
L241.77 162.87
L244.08 164.095
L246.225 164.964
L248.707 165.677
L251 166.106
L253.941 166.419
L258.049 166.594
L265.438 166.654
L292.393 166.815
L299.313 167.031
L303.431 167.332
L306.362 167.721
L309.032 168.299
L310.89 168.894
L312.639 169.655
L314.292 170.609
L315.858 171.778
L317.347 173.181
L318.765 174.828
L320.12 176.722
L321.416 178.858
L323.061 182.058
L324.621 185.613
L326.463 190.468
L328.199 195.658
L330.471 203.225
L331.697 207.57
L337.17 227.119
L339.573 234.688
L341.797 240.719
L343.868 245.429
L345.806 249.065
L347.626 251.855
L349.341 253.989
L350.964 255.62
L352.504 256.867
L353.969 257.822
L355.365 258.556
L357.977 259.566
L360.38 260.19
L363.658 260.749
L368.433 261.241
L374.776 261.631
L384.465 261.981
L399.277 262.272
L400.817 262.293
L400.817 262.293" style="fill:none;stroke:#0000aa;stroke-linecap:square;stroke-width:2;"/>
   </g>
   <g id="line2d_9">
    <path clip-path="url(#p89137f74a4)" d="
M55.2169 123.556
L76.0241 123.693
L88.1955 123.835
L109.003 124.275
L124.337 124.873
L134.437 125.476
L143.604 126.233
L151.842 127.144
L159.253 128.207
L165.951 129.419
L171.424 130.626
L176.583 131.975
L181.435 133.458
L186.381 135.212
L190.954 137.073
L193.457 138.196
L198.93 140.916
L203.557 143.499
L209.386 147.085
L217.125 152.23
L224.364 157.019
L228.373 159.437
L231.909 161.32
L235.071 162.752
L237.932 163.817
L241.163 164.752
L244.08 165.367
L247.243 165.822
L251.438 166.173
L257.343 166.392
L284.849 167.099
L291.26 167.508
L296.54 168.065
L300.183 168.656
L303.431 169.414
L306.362 170.372
L308.387 171.241
L310.283 172.249
L312.067 173.407
L313.751 174.717
L315.345 176.184
L317.347 178.383
L319.224 180.85
L320.99 183.558
L323.061 187.228
L324.998 191.132
L327.169 195.994
L329.839 202.536
L331.697 207.365
L334.558 215.193
L337.17 222.824
L339.573 230.446
L341.797 238.402
L343.868 247.071
L345.806 256.729
L347.626 267.47
L349.341 279.164
L352.504 303.743
L355.365 326.081
L356.7 335.182
L357.977 342.556
L359.202 348.167
L360.38 352.162
L361.513 354.821
L362.604 356.475
L363.658 357.433
L364.675 357.946
L365.66 358.203
L367.537 358.41
L371.772 358.54
L385.483 358.612
L400.817 358.628
L400.817 358.628" style="fill:none;stroke:#0000aa;stroke-linecap:square;stroke-width:2;"/>
   </g>
   <g id="line2d_10">
    <path clip-path="url(#p89137f74a4)" d="
M55.2169 88.702
L76.0241 88.8807
L88.1955 89.0645
L103.53 89.44
L117.638 90.0145
L127.198 90.5981
L136.508 91.3871
L143.604 92.1866
L150.617 93.1989
L156.298 94.2242
L161.943 95.4699
L166.692 96.7303
L171.424 98.217
L175.511 99.7186
L179.587 101.449
L183.596 103.41
L187.131 105.381
L190.626 107.576
L193.457 109.552
L196.318 111.741
L198.93 113.918
L203.557 118.216
L207.566 122.414
L211.101 126.482
L215.729 132.277
L220.962 139.309
L228.373 149.371
L231.909 153.789
L234.311 156.503
L236.536 158.75
L238.607 160.58
L240.544 162.049
L242.364 163.21
L244.631 164.371
L246.738 165.188
L249.18 165.862
L251.87 166.34
L255.118 166.663
L260.074 166.888
L278.506 167.507
L284.849 167.961
L290.082 168.582
L293.484 169.197
L296.54 169.973
L299.313 170.939
L301.851 172.126
L304.191 173.557
L306.362 175.253
L308.387 177.228
L310.283 179.491
L312.067 182.043
L313.751 184.884
L315.345 188.009
L316.859 191.411
L318.765 196.361
L320.558 201.759
L322.25 207.571
L324.238 215.354
L326.104 223.626
L328.199 234.048
L330.471 246.639
L331.697 253.927
L337.17 289.201
L339.573 304.772
L341.797 318.159
L343.868 329.089
L345.806 337.601
L347.626 343.963
L349.341 348.559
L350.964 351.788
L352.504 354.006
L353.969 355.505
L355.365 356.509
L356.7 357.181
L357.977 357.63
L360.38 358.126
L363.658 358.405
L369.303 358.543
L385.979 358.614
L400.817 358.627
L400.817 358.627" style="fill:none;stroke:#0000aa;stroke-linecap:square;stroke-width:2;"/>
   </g>
   <g id="matplotlib.axis_1">
    <g id="xtick_1">
     <g id="line2d_11">
      <path clip-path="url(#p89137f74a4)" d="
M55.2169 358.639
L55.2169 13.0387" style="fill:none;stroke:#000000;stroke-dasharray:1.000000,3.000000;stroke-dashoffset:0.0;stroke-width:0.5;"/>
     </g>
     <g id="line2d_12">
      <defs>
       <path d="
M0 0
L0 -4" id="m93b0483c22" style="stroke:#000000;stroke-width:0.5;"/>
      </defs>
      <g>
       <use style="stroke:#000000;stroke-width:0.5;" x="55.216875" xlink:href="#m93b0483c22" y="358.63875"/>
      </g>
     </g>
     <g id="line2d_13">
      <defs>
       <path d="
M0 0
L0 4" id="m741efc42ff" style="stroke:#000000;stroke-width:0.5;"/>
      </defs>
      <g>
       <use style="stroke:#000000;stroke-width:0.5;" x="55.216875" xlink:href="#m741efc42ff" y="13.03875"/>
      </g>
     </g>
     <g id="text_1">
      <!-- 1e0 -->
      <defs>
       <path d="
M13.1875 8.29688
L28.5156 8.29688
L28.5156 64.0156
L12.0156 60.2969
L12.0156 69.2812
L28.4219 72.9062
L38.2812 72.9062
L38.2812 8.29688
L53.4219 8.29688
L53.4219 0
L13.1875 0
z
" id="BitstreamVeraSansMono-Roman-31"/>
       <path d="
M23.5781 36.625
Q23.5781 39.3125 25.4531 41.2656
Q27.3438 43.2188 29.9844 43.2188
Q32.7188 43.2188 34.6719 41.2656
Q36.625 39.3125 36.625 36.625
Q36.625 33.8906 34.6875 31.9844
Q32.7656 30.0781 29.9844 30.0781
Q27.25 30.0781 25.4062 31.9375
Q23.5781 33.7969 23.5781 36.625
M30.0781 66.4062
Q23.1875 66.4062 19.7969 58.9844
Q16.4062 51.5625 16.4062 36.375
Q16.4062 21.2344 19.7969 13.8125
Q23.1875 6.39062 30.0781 6.39062
Q37.0156 6.39062 40.4062 13.8125
Q43.7969 21.2344 43.7969 36.375
Q43.7969 51.5625 40.4062 58.9844
Q37.0156 66.4062 30.0781 66.4062
M30.0781 74.2188
Q41.75 74.2188 47.7344 64.6406
Q53.7188 55.0781 53.7188 36.375
Q53.7188 17.7188 47.7344 8.14062
Q41.75 -1.42188 30.0781 -1.42188
Q18.4062 -1.42188 12.4531 8.14062
Q6.5 17.7188 6.5 36.375
Q6.5 55.0781 12.4531 64.6406
Q18.4062 74.2188 30.0781 74.2188" id="BitstreamVeraSansMono-Roman-30"/>
       <path d="
M54.2969 29.5938
L54.2969 25.2031
L15.375 25.2031
L15.375 24.9062
Q15.375 15.9688 20.0312 11.0781
Q24.7031 6.20312 33.2031 6.20312
Q37.5 6.20312 42.1875 7.5625
Q46.875 8.9375 52.2031 11.7188
L52.2031 2.78125
Q47.0781 0.6875 42.3125 -0.359375
Q37.5469 -1.42188 33.1094 -1.42188
Q20.3594 -1.42188 13.1719 6.21875
Q6 13.875 6 27.2969
Q6 40.375 13.0312 48.1875
Q20.0625 56 31.7812 56
Q42.2344 56 48.2656 48.9219
Q54.2969 41.8438 54.2969 29.5938
M45.3125 32.2344
Q45.125 40.1406 41.5781 44.2656
Q38.0312 48.3906 31.3906 48.3906
Q24.9062 48.3906 20.7031 44.0938
Q16.5 39.7969 15.7188 32.1719
z
" id="BitstreamVeraSansMono-Roman-65"/>
      </defs>
      <g transform="translate(45.4903125 371.820625)scale(0.12 -0.12)">
       <use xlink:href="#BitstreamVeraSansMono-Roman-31"/>
       <use x="60.205078125" xlink:href="#BitstreamVeraSansMono-Roman-65"/>
       <use x="120.41015625" xlink:href="#BitstreamVeraSansMono-Roman-30"/>
      </g>
     </g>
    </g>
    <g id="xtick_2">
     <g id="line2d_14">
      <path clip-path="url(#p89137f74a4)" d="
M124.337 358.639
L124.337 13.0387" style="fill:none;stroke:#000000;stroke-dasharray:1.000000,3.000000;stroke-dashoffset:0.0;stroke-width:0.5;"/>
     </g>
     <g id="line2d_15">
      <g>
       <use style="stroke:#000000;stroke-width:0.5;" x="124.336875" xlink:href="#m93b0483c22" y="358.63875"/>
      </g>
     </g>
     <g id="line2d_16">
      <g>
       <use style="stroke:#000000;stroke-width:0.5;" x="124.336875" xlink:href="#m741efc42ff" y="13.03875"/>
      </g>
     </g>
     <g id="text_2">
      <!-- 1e1 -->
      <g transform="translate(114.628125 371.820625)scale(0.12 -0.12)">
       <use xlink:href="#BitstreamVeraSansMono-Roman-31"/>
       <use x="60.205078125" xlink:href="#BitstreamVeraSansMono-Roman-65"/>
       <use x="120.41015625" xlink:href="#BitstreamVeraSansMono-Roman-31"/>
      </g>
     </g>
    </g>
    <g id="xtick_3">
     <g id="line2d_17">
      <path clip-path="url(#p89137f74a4)" d="
M193.457 358.639
L193.457 13.0387" style="fill:none;stroke:#000000;stroke-dasharray:1.000000,3.000000;stroke-dashoffset:0.0;stroke-width:0.5;"/>
     </g>
     <g id="line2d_18">
      <g>
       <use style="stroke:#000000;stroke-width:0.5;" x="193.456875" xlink:href="#m93b0483c22" y="358.63875"/>
      </g>
     </g>
     <g id="line2d_19">
      <g>
       <use style="stroke:#000000;stroke-width:0.5;" x="193.456875" xlink:href="#m741efc42ff" y="13.03875"/>
      </g>
     </g>
     <g id="text_3">
      <!-- 1e2 -->
      <defs>
       <path d="
M18.2188 8.29688
L51.7031 8.29688
L51.7031 0
L7.42188 0
L7.42188 8.29688
Q16.5469 17.9219 23.375 25.2969
Q30.2188 32.6719 32.8125 35.6875
Q37.7031 41.6562 39.4062 45.3438
Q41.1094 49.0312 41.1094 52.875
Q41.1094 58.9844 37.5156 62.4531
Q33.9375 65.9219 27.6875 65.9219
Q23.25 65.9219 18.3594 64.3125
Q13.4844 62.7031 8.01562 59.4219
L8.01562 69.3906
Q13.0312 71.7812 17.8906 73
Q22.75 74.2188 27.4844 74.2188
Q38.1875 74.2188 44.7031 68.5312
Q51.2188 62.8438 51.2188 53.6094
Q51.2188 48.9219 49.0469 44.2344
Q46.875 39.5469 42 33.8906
Q39.2656 30.7188 34.0625 25.0938
Q28.8594 19.4844 18.2188 8.29688" id="BitstreamVeraSansMono-Roman-32"/>
      </defs>
      <g transform="translate(183.85125 371.820625)scale(0.12 -0.12)">
       <use xlink:href="#BitstreamVeraSansMono-Roman-31"/>
       <use x="60.205078125" xlink:href="#BitstreamVeraSansMono-Roman-65"/>
       <use x="120.41015625" xlink:href="#BitstreamVeraSansMono-Roman-32"/>
      </g>
     </g>
    </g>
    <g id="xtick_4">
     <g id="line2d_20">
      <path clip-path="url(#p89137f74a4)" d="
M262.577 358.639
L262.577 13.0387" style="fill:none;stroke:#000000;stroke-dasharray:1.000000,3.000000;stroke-dashoffset:0.0;stroke-width:0.5;"/>
     </g>
     <g id="line2d_21">
      <g>
       <use style="stroke:#000000;stroke-width:0.5;" x="262.576875" xlink:href="#m93b0483c22" y="358.63875"/>
      </g>
     </g>
     <g id="line2d_22">
      <g>
       <use style="stroke:#000000;stroke-width:0.5;" x="262.576875" xlink:href="#m741efc42ff" y="13.03875"/>
      </g>
     </g>
     <g id="text_4">
      <!-- 1e3 -->
      <defs>
       <path d="
M37.8906 39.0156
Q45.0625 37.1094 48.875 32.25
Q52.6875 27.3906 52.6875 20.125
Q52.6875 10.0625 45.9219 4.3125
Q39.1562 -1.42188 27.2031 -1.42188
Q22.1719 -1.42188 16.9375 -0.484375
Q11.7188 0.4375 6.6875 2.20312
L6.6875 12.0156
Q11.6719 9.42188 16.5 8.15625
Q21.3438 6.89062 26.125 6.89062
Q34.2344 6.89062 38.5781 10.5469
Q42.9219 14.2031 42.9219 21.0938
Q42.9219 27.4375 38.5781 31.1719
Q34.2344 34.9062 26.8125 34.9062
L19.2812 34.9062
L19.2812 43.0156
L26.8125 43.0156
Q33.5938 43.0156 37.4062 45.9844
Q41.2188 48.9688 41.2188 54.2969
Q41.2188 59.9062 37.6719 62.9062
Q34.125 65.9219 27.5938 65.9219
Q23.25 65.9219 18.6094 64.9375
Q13.9688 63.9688 8.89062 62.0156
L8.89062 71.0938
Q14.7969 72.6562 19.4062 73.4375
Q24.0312 74.2188 27.5938 74.2188
Q38.2344 74.2188 44.6094 68.875
Q50.9844 63.5312 50.9844 54.6875
Q50.9844 48.6875 47.625 44.6719
Q44.2812 40.6719 37.8906 39.0156" id="BitstreamVeraSansMono-Roman-33"/>
      </defs>
      <g transform="translate(252.9121875 371.820625)scale(0.12 -0.12)">
       <use xlink:href="#BitstreamVeraSansMono-Roman-31"/>
       <use x="60.205078125" xlink:href="#BitstreamVeraSansMono-Roman-65"/>
       <use x="120.41015625" xlink:href="#BitstreamVeraSansMono-Roman-33"/>
      </g>
     </g>
    </g>
    <g id="xtick_5">
     <g id="line2d_23">
      <path clip-path="url(#p89137f74a4)" d="
M331.697 358.639
L331.697 13.0387" style="fill:none;stroke:#000000;stroke-dasharray:1.000000,3.000000;stroke-dashoffset:0.0;stroke-width:0.5;"/>
     </g>
     <g id="line2d_24">
      <g>
       <use style="stroke:#000000;stroke-width:0.5;" x="331.696875" xlink:href="#m93b0483c22" y="358.63875"/>
      </g>
     </g>
     <g id="line2d_25">
      <g>
       <use style="stroke:#000000;stroke-width:0.5;" x="331.696875" xlink:href="#m741efc42ff" y="13.03875"/>
      </g>
     </g>
     <g id="text_5">
      <!-- 1e4 -->
      <defs>
       <path d="
M35.8906 63.9219
L12.8906 25.3906
L35.8906 25.3906
z

M34.2812 72.9062
L45.7031 72.9062
L45.7031 25.3906
L55.4219 25.3906
L55.4219 17.3906
L45.7031 17.3906
L45.7031 0
L35.8906 0
L35.8906 17.3906
L4.98438 17.3906
L4.98438 26.7031
z
" id="BitstreamVeraSansMono-Roman-34"/>
      </defs>
      <g transform="translate(321.868125 371.820625)scale(0.12 -0.12)">
       <use xlink:href="#BitstreamVeraSansMono-Roman-31"/>
       <use x="60.205078125" xlink:href="#BitstreamVeraSansMono-Roman-65"/>
       <use x="120.41015625" xlink:href="#BitstreamVeraSansMono-Roman-34"/>
      </g>
     </g>
    </g>
    <g id="xtick_6">
     <g id="line2d_26">
      <path clip-path="url(#p89137f74a4)" d="
M400.817 358.639
L400.817 13.0387" style="fill:none;stroke:#000000;stroke-dasharray:1.000000,3.000000;stroke-dashoffset:0.0;stroke-width:0.5;"/>
     </g>
     <g id="line2d_27">
      <g>
       <use style="stroke:#000000;stroke-width:0.5;" x="400.816875" xlink:href="#m93b0483c22" y="358.63875"/>
      </g>
     </g>
     <g id="line2d_28">
      <g>
       <use style="stroke:#000000;stroke-width:0.5;" x="400.816875" xlink:href="#m741efc42ff" y="13.03875"/>
      </g>
     </g>
     <g id="text_6">
      <!-- 1e5 -->
      <defs>
       <path d="
M10.1094 72.9062
L47.0156 72.9062
L47.0156 64.5938
L19.0938 64.5938
L19.0938 46.6875
Q21.1875 47.4688 23.3125 47.8281
Q25.4375 48.1875 27.5938 48.1875
Q38.9219 48.1875 45.5625 41.5
Q52.2031 34.8125 52.2031 23.3906
Q52.2031 11.8594 45.2344 5.21875
Q38.2812 -1.42188 26.2188 -1.42188
Q20.4062 -1.42188 15.5938 -0.640625
Q10.7969 0.140625 6.98438 1.70312
L6.98438 11.7188
Q11.4688 9.28125 16.0156 8.07812
Q20.5625 6.89062 25.2969 6.89062
Q33.4531 6.89062 37.8594 11.1875
Q42.2812 15.4844 42.2812 23.3906
Q42.2812 31.2031 37.7188 35.5469
Q33.1562 39.8906 25 39.8906
Q21.0469 39.8906 17.2812 38.9844
Q13.5312 38.0938 10.1094 36.2812
z
" id="BitstreamVeraSansMono-Roman-35"/>
      </defs>
      <g transform="translate(391.18125 371.820625)scale(0.12 -0.12)">
       <use xlink:href="#BitstreamVeraSansMono-Roman-31"/>
       <use x="60.205078125" xlink:href="#BitstreamVeraSansMono-Roman-65"/>
       <use x="120.41015625" xlink:href="#BitstreamVeraSansMono-Roman-35"/>
      </g>
     </g>
    </g>
    <g id="text_7">
     <!-- #epoch -->
     <defs>
      <path d="
M18.3125 6.89062
L18.3125 -20.7969
L9.28125 -20.7969
L9.28125 54.6875
L18.3125 54.6875
L18.3125 47.7031
Q20.5625 51.7656 24.2969 53.875
Q28.0312 56 32.9062 56
Q42.8281 56 48.4688 48.3281
Q54.1094 40.6719 54.1094 27.0938
Q54.1094 13.7656 48.4375 6.17188
Q42.7812 -1.42188 32.9062 -1.42188
Q27.9375 -1.42188 24.1875 0.703125
Q20.4531 2.82812 18.3125 6.89062
M44.6719 27.2969
Q44.6719 37.75 41.375 43.0625
Q38.0938 48.3906 31.5938 48.3906
Q25.0469 48.3906 21.6719 43.0469
Q18.3125 37.7031 18.3125 27.2969
Q18.3125 16.9375 21.6719 11.5625
Q25.0469 6.20312 31.5938 6.20312
Q38.0938 6.20312 41.375 11.5156
Q44.6719 16.8438 44.6719 27.2969" id="BitstreamVeraSansMono-Roman-70"/>
      <path d="
M51.3125 33.8906
L51.3125 0
L42.2812 0
L42.2812 33.8906
Q42.2812 41.2656 39.6875 44.7188
Q37.1094 48.1875 31.5938 48.1875
Q25.2969 48.1875 21.8906 43.7188
Q18.5 39.2656 18.5 30.9062
L18.5 0
L9.51562 0
L9.51562 75.9844
L18.5 75.9844
L18.5 46.4844
Q20.9062 51.1719 25 53.5781
Q29.1094 56 34.7188 56
Q43.0625 56 47.1875 50.5
Q51.3125 45.0156 51.3125 33.8906" id="BitstreamVeraSansMono-Roman-68"/>
      <path d="
M30.0781 48.3906
Q23.25 48.3906 19.7344 43.0625
Q16.2188 37.75 16.2188 27.2969
Q16.2188 16.8906 19.7344 11.5469
Q23.25 6.20312 30.0781 6.20312
Q36.9688 6.20312 40.4844 11.5469
Q44 16.8906 44 27.2969
Q44 37.75 40.4844 43.0625
Q36.9688 48.3906 30.0781 48.3906
M30.0781 56
Q41.4531 56 47.4844 48.625
Q53.5156 41.2656 53.5156 27.2969
Q53.5156 13.2812 47.5 5.92188
Q41.5 -1.42188 30.0781 -1.42188
Q18.7031 -1.42188 12.6875 5.92188
Q6.6875 13.2812 6.6875 27.2969
Q6.6875 41.2656 12.6875 48.625
Q18.7031 56 30.0781 56" id="BitstreamVeraSansMono-Roman-6f"/>
      <path d="
M33.4062 71.7812
L28.3281 51.5156
L40.2812 51.5156
L45.4062 71.7812
L53.2188 71.7812
L48.0938 51.5156
L60.0156 51.5156
L60.0156 44
L46.2969 44
L42.1875 27.6875
L54.3906 27.6875
L54.3906 20.2188
L40.2812 20.2188
L35.2031 0
L27.3906 0
L32.5156 20.2188
L20.5156 20.2188
L15.375 0
L7.625 0
L12.7031 20.2188
L0.09375 20.2188
L0.09375 27.6875
L14.5938 27.6875
L18.7031 44
L5.71875 44
L5.71875 51.5156
L20.5156 51.5156
L25.5938 71.7812
z

M38.4844 44
L26.5156 44
L22.4062 27.6875
L34.4219 27.6875
z
" id="BitstreamVeraSansMono-Roman-23"/>
      <path d="
M51.8125 2.78125
Q48.1875 0.6875 44.3594 -0.359375
Q40.5312 -1.42188 36.5312 -1.42188
Q23.8281 -1.42188 16.6719 6.1875
Q9.51562 13.8125 9.51562 27.2969
Q9.51562 40.7656 16.6719 48.375
Q23.8281 56 36.5312 56
Q40.4844 56 44.2344 54.9688
Q48 53.9531 51.8125 51.8125
L51.8125 42.3906
Q48.25 45.5625 44.6562 46.9688
Q41.0625 48.3906 36.5312 48.3906
Q28.0781 48.3906 23.5312 42.9219
Q19 37.4531 19 27.2969
Q19 17.1875 23.5625 11.6875
Q28.125 6.20312 36.5312 6.20312
Q41.2188 6.20312 44.9219 7.64062
Q48.6406 9.07812 51.8125 12.1094
z
" id="BitstreamVeraSansMono-Roman-63"/>
     </defs>
     <g transform="translate(206.8828125 388.498125)scale(0.12 -0.12)">
      <use xlink:href="#BitstreamVeraSansMono-Roman-23"/>
      <use x="60.205078125" xlink:href="#BitstreamVeraSansMono-Roman-65"/>
      <use x="120.41015625" xlink:href="#BitstreamVeraSansMono-Roman-70"/>
      <use x="180.615234375" xlink:href="#BitstreamVeraSansMono-Roman-6f"/>
      <use x="240.8203125" xlink:href="#BitstreamVeraSansMono-Roman-63"/>
      <use x="301.025390625" xlink:href="#BitstreamVeraSansMono-Roman-68"/>
     </g>
    </g>
   </g>
   <g id="matplotlib.axis_2">
    <g id="ytick_1">
     <g id="line2d_29">
      <path clip-path="url(#p89137f74a4)" d="
M55.2169 358.639
L400.817 358.639" style="fill:none;stroke:#000000;stroke-dasharray:1.000000,3.000000;stroke-dashoffset:0.0;stroke-width:0.5;"/>
     </g>
     <g id="line2d_30">
      <defs>
       <path d="
M0 0
L4 0" id="m728421d6d4" style="stroke:#000000;stroke-width:0.5;"/>
      </defs>
      <g>
       <use style="stroke:#000000;stroke-width:0.5;" x="55.216875" xlink:href="#m728421d6d4" y="358.63875"/>
      </g>
     </g>
     <g id="line2d_31">
      <defs>
       <path d="
M0 0
L-4 0" id="mcb0005524f" style="stroke:#000000;stroke-width:0.5;"/>
      </defs>
      <g>
       <use style="stroke:#000000;stroke-width:0.5;" x="400.816875" xlink:href="#mcb0005524f" y="358.63875"/>
      </g>
     </g>
     <g id="text_8">
      <!-- 0.00 -->
      <defs>
       <path d="
M23.875 14.8906
L36.1875 14.8906
L36.1875 0
L23.875 0
z
" id="BitstreamVeraSansMono-Roman-2e"/>
      </defs>
      <g transform="translate(23.8775 361.981875)scale(0.12 -0.12)">
       <use xlink:href="#BitstreamVeraSansMono-Roman-30"/>
       <use x="60.205078125" xlink:href="#BitstreamVeraSansMono-Roman-2e"/>
       <use x="120.41015625" xlink:href="#BitstreamVeraSansMono-Roman-30"/>
       <use x="180.615234375" xlink:href="#BitstreamVeraSansMono-Roman-30"/>
      </g>
     </g>
    </g>
    <g id="ytick_2">
     <g id="line2d_32">
      <path clip-path="url(#p89137f74a4)" d="
M55.2169 320.239
L400.817 320.239" style="fill:none;stroke:#000000;stroke-dasharray:1.000000,3.000000;stroke-dashoffset:0.0;stroke-width:0.5;"/>
     </g>
     <g id="line2d_33">
      <g>
       <use style="stroke:#000000;stroke-width:0.5;" x="55.216875" xlink:href="#m728421d6d4" y="320.23875"/>
      </g>
     </g>
     <g id="line2d_34">
      <g>
       <use style="stroke:#000000;stroke-width:0.5;" x="400.816875" xlink:href="#mcb0005524f" y="320.23875"/>
      </g>
     </g>
     <g id="text_9">
      <!-- 0.05 -->
      <g transform="translate(24.059375 323.581875)scale(0.12 -0.12)">
       <use xlink:href="#BitstreamVeraSansMono-Roman-30"/>
       <use x="60.205078125" xlink:href="#BitstreamVeraSansMono-Roman-2e"/>
       <use x="120.41015625" xlink:href="#BitstreamVeraSansMono-Roman-30"/>
       <use x="180.615234375" xlink:href="#BitstreamVeraSansMono-Roman-35"/>
      </g>
     </g>
    </g>
    <g id="ytick_3">
     <g id="line2d_35">
      <path clip-path="url(#p89137f74a4)" d="
M55.2169 281.839
L400.817 281.839" style="fill:none;stroke:#000000;stroke-dasharray:1.000000,3.000000;stroke-dashoffset:0.0;stroke-width:0.5;"/>
     </g>
     <g id="line2d_36">
      <g>
       <use style="stroke:#000000;stroke-width:0.5;" x="55.216875" xlink:href="#m728421d6d4" y="281.83875"/>
      </g>
     </g>
     <g id="line2d_37">
      <g>
       <use style="stroke:#000000;stroke-width:0.5;" x="400.816875" xlink:href="#mcb0005524f" y="281.83875"/>
      </g>
     </g>
     <g id="text_10">
      <!-- 0.10 -->
      <g transform="translate(23.8775 285.181875)scale(0.12 -0.12)">
       <use xlink:href="#BitstreamVeraSansMono-Roman-30"/>
       <use x="60.205078125" xlink:href="#BitstreamVeraSansMono-Roman-2e"/>
       <use x="120.41015625" xlink:href="#BitstreamVeraSansMono-Roman-31"/>
       <use x="180.615234375" xlink:href="#BitstreamVeraSansMono-Roman-30"/>
      </g>
     </g>
    </g>
    <g id="ytick_4">
     <g id="line2d_38">
      <path clip-path="url(#p89137f74a4)" d="
M55.2169 243.439
L400.817 243.439" style="fill:none;stroke:#000000;stroke-dasharray:1.000000,3.000000;stroke-dashoffset:0.0;stroke-width:0.5;"/>
     </g>
     <g id="line2d_39">
      <g>
       <use style="stroke:#000000;stroke-width:0.5;" x="55.216875" xlink:href="#m728421d6d4" y="243.43875"/>
      </g>
     </g>
     <g id="line2d_40">
      <g>
       <use style="stroke:#000000;stroke-width:0.5;" x="400.816875" xlink:href="#mcb0005524f" y="243.43875"/>
      </g>
     </g>
     <g id="text_11">
      <!-- 0.15 -->
      <g transform="translate(24.059375 246.781875)scale(0.12 -0.12)">
       <use xlink:href="#BitstreamVeraSansMono-Roman-30"/>
       <use x="60.205078125" xlink:href="#BitstreamVeraSansMono-Roman-2e"/>
       <use x="120.41015625" xlink:href="#BitstreamVeraSansMono-Roman-31"/>
       <use x="180.615234375" xlink:href="#BitstreamVeraSansMono-Roman-35"/>
      </g>
     </g>
    </g>
    <g id="ytick_5">
     <g id="line2d_41">
      <path clip-path="url(#p89137f74a4)" d="
M55.2169 205.039
L400.817 205.039" style="fill:none;stroke:#000000;stroke-dasharray:1.000000,3.000000;stroke-dashoffset:0.0;stroke-width:0.5;"/>
     </g>
     <g id="line2d_42">
      <g>
       <use style="stroke:#000000;stroke-width:0.5;" x="55.216875" xlink:href="#m728421d6d4" y="205.03875"/>
      </g>
     </g>
     <g id="line2d_43">
      <g>
       <use style="stroke:#000000;stroke-width:0.5;" x="400.816875" xlink:href="#mcb0005524f" y="205.03875"/>
      </g>
     </g>
     <g id="text_12">
      <!-- 0.20 -->
      <g transform="translate(23.8775 208.381875)scale(0.12 -0.12)">
       <use xlink:href="#BitstreamVeraSansMono-Roman-30"/>
       <use x="60.205078125" xlink:href="#BitstreamVeraSansMono-Roman-2e"/>
       <use x="120.41015625" xlink:href="#BitstreamVeraSansMono-Roman-32"/>
       <use x="180.615234375" xlink:href="#BitstreamVeraSansMono-Roman-30"/>
      </g>
     </g>
    </g>
    <g id="ytick_6">
     <g id="line2d_44">
      <path clip-path="url(#p89137f74a4)" d="
M55.2169 166.639
L400.817 166.639" style="fill:none;stroke:#000000;stroke-dasharray:1.000000,3.000000;stroke-dashoffset:0.0;stroke-width:0.5;"/>
     </g>
     <g id="line2d_45">
      <g>
       <use style="stroke:#000000;stroke-width:0.5;" x="55.216875" xlink:href="#m728421d6d4" y="166.63875"/>
      </g>
     </g>
     <g id="line2d_46">
      <g>
       <use style="stroke:#000000;stroke-width:0.5;" x="400.816875" xlink:href="#mcb0005524f" y="166.63875"/>
      </g>
     </g>
     <g id="text_13">
      <!-- 0.25 -->
      <g transform="translate(24.059375 169.981875)scale(0.12 -0.12)">
       <use xlink:href="#BitstreamVeraSansMono-Roman-30"/>
       <use x="60.205078125" xlink:href="#BitstreamVeraSansMono-Roman-2e"/>
       <use x="120.41015625" xlink:href="#BitstreamVeraSansMono-Roman-32"/>
       <use x="180.615234375" xlink:href="#BitstreamVeraSansMono-Roman-35"/>
      </g>
     </g>
    </g>
    <g id="ytick_7">
     <g id="line2d_47">
      <path clip-path="url(#p89137f74a4)" d="
M55.2169 128.239
L400.817 128.239" style="fill:none;stroke:#000000;stroke-dasharray:1.000000,3.000000;stroke-dashoffset:0.0;stroke-width:0.5;"/>
     </g>
     <g id="line2d_48">
      <g>
       <use style="stroke:#000000;stroke-width:0.5;" x="55.216875" xlink:href="#m728421d6d4" y="128.23875"/>
      </g>
     </g>
     <g id="line2d_49">
      <g>
       <use style="stroke:#000000;stroke-width:0.5;" x="400.816875" xlink:href="#mcb0005524f" y="128.23875"/>
      </g>
     </g>
     <g id="text_14">
      <!-- 0.30 -->
      <g transform="translate(23.8775 131.581875)scale(0.12 -0.12)">
       <use xlink:href="#BitstreamVeraSansMono-Roman-30"/>
       <use x="60.205078125" xlink:href="#BitstreamVeraSansMono-Roman-2e"/>
       <use x="120.41015625" xlink:href="#BitstreamVeraSansMono-Roman-33"/>
       <use x="180.615234375" xlink:href="#BitstreamVeraSansMono-Roman-30"/>
      </g>
     </g>
    </g>
    <g id="ytick_8">
     <g id="line2d_50">
      <path clip-path="url(#p89137f74a4)" d="
M55.2169 89.8387
L400.817 89.8387" style="fill:none;stroke:#000000;stroke-dasharray:1.000000,3.000000;stroke-dashoffset:0.0;stroke-width:0.5;"/>
     </g>
     <g id="line2d_51">
      <g>
       <use style="stroke:#000000;stroke-width:0.5;" x="55.216875" xlink:href="#m728421d6d4" y="89.83875"/>
      </g>
     </g>
     <g id="line2d_52">
      <g>
       <use style="stroke:#000000;stroke-width:0.5;" x="400.816875" xlink:href="#mcb0005524f" y="89.83875"/>
      </g>
     </g>
     <g id="text_15">
      <!-- 0.35 -->
      <g transform="translate(24.059375 93.181875)scale(0.12 -0.12)">
       <use xlink:href="#BitstreamVeraSansMono-Roman-30"/>
       <use x="60.205078125" xlink:href="#BitstreamVeraSansMono-Roman-2e"/>
       <use x="120.41015625" xlink:href="#BitstreamVeraSansMono-Roman-33"/>
       <use x="180.615234375" xlink:href="#BitstreamVeraSansMono-Roman-35"/>
      </g>
     </g>
    </g>
    <g id="ytick_9">
     <g id="line2d_53">
      <path clip-path="url(#p89137f74a4)" d="
M55.2169 51.4387
L400.817 51.4387" style="fill:none;stroke:#000000;stroke-dasharray:1.000000,3.000000;stroke-dashoffset:0.0;stroke-width:0.5;"/>
     </g>
     <g id="line2d_54">
      <g>
       <use style="stroke:#000000;stroke-width:0.5;" x="55.216875" xlink:href="#m728421d6d4" y="51.43875"/>
      </g>
     </g>
     <g id="line2d_55">
      <g>
       <use style="stroke:#000000;stroke-width:0.5;" x="400.816875" xlink:href="#mcb0005524f" y="51.43875"/>
      </g>
     </g>
     <g id="text_16">
      <!-- 0.40 -->
      <g transform="translate(23.8775 54.781875)scale(0.12 -0.12)">
       <use xlink:href="#BitstreamVeraSansMono-Roman-30"/>
       <use x="60.205078125" xlink:href="#BitstreamVeraSansMono-Roman-2e"/>
       <use x="120.41015625" xlink:href="#BitstreamVeraSansMono-Roman-34"/>
       <use x="180.615234375" xlink:href="#BitstreamVeraSansMono-Roman-30"/>
      </g>
     </g>
    </g>
    <g id="ytick_10">
     <g id="line2d_56">
      <path clip-path="url(#p89137f74a4)" d="
M55.2169 13.0387
L400.817 13.0387" style="fill:none;stroke:#000000;stroke-dasharray:1.000000,3.000000;stroke-dashoffset:0.0;stroke-width:0.5;"/>
     </g>
     <g id="line2d_57">
      <g>
       <use style="stroke:#000000;stroke-width:0.5;" x="55.216875" xlink:href="#m728421d6d4" y="13.03875"/>
      </g>
     </g>
     <g id="line2d_58">
      <g>
       <use style="stroke:#000000;stroke-width:0.5;" x="400.816875" xlink:href="#mcb0005524f" y="13.03875"/>
      </g>
     </g>
     <g id="text_17">
      <!-- 0.45 -->
      <g transform="translate(24.059375 16.381875)scale(0.12 -0.12)">
       <use xlink:href="#BitstreamVeraSansMono-Roman-30"/>
       <use x="60.205078125" xlink:href="#BitstreamVeraSansMono-Roman-2e"/>
       <use x="120.41015625" xlink:href="#BitstreamVeraSansMono-Roman-34"/>
       <use x="180.615234375" xlink:href="#BitstreamVeraSansMono-Roman-35"/>
      </g>
     </g>
    </g>
    <g id="text_18">
     <!-- loss -->
     <defs>
      <path d="
M31.2031 19.8281
Q31.2031 13.7656 33.4219 10.6875
Q35.6406 7.625 39.9844 7.625
L50.4844 7.625
L50.4844 0
L39.1094 0
Q31.0625 0 26.6406 5.17188
Q22.2188 10.3594 22.2188 19.8281
L22.2188 69.4844
L7.8125 69.4844
L7.8125 76.5156
L31.2031 76.5156
z
" id="BitstreamVeraSansMono-Roman-6c"/>
      <path d="
M47.5156 52.7812
L47.5156 44
Q43.6562 46.2344 39.75 47.3594
Q35.8438 48.4844 31.7812 48.4844
Q25.6875 48.4844 22.6719 46.5
Q19.6719 44.5312 19.6719 40.4844
Q19.6719 36.8125 21.9219 35
Q24.1719 33.2031 33.1094 31.5
L36.7188 30.8125
Q43.4062 29.5469 46.8438 25.7344
Q50.2969 21.9219 50.2969 15.8281
Q50.2969 7.71875 44.5312 3.14062
Q38.7656 -1.42188 28.5156 -1.42188
Q24.4688 -1.42188 20.0156 -0.5625
Q15.5781 0.296875 10.4062 2
L10.4062 11.2812
Q15.4375 8.6875 20.0156 7.39062
Q24.6094 6.10938 28.7188 6.10938
Q34.6719 6.10938 37.9375 8.51562
Q41.2188 10.9375 41.2188 15.2812
Q41.2188 21.5312 29.25 23.9219
L28.8594 24.0312
L25.4844 24.7031
Q17.7188 26.2188 14.1562 29.8125
Q10.5938 33.4062 10.5938 39.5938
Q10.5938 47.4688 15.9062 51.7344
Q21.2344 56 31.1094 56
Q35.5 56 39.5469 55.1875
Q43.6094 54.3906 47.5156 52.7812" id="BitstreamVeraSansMono-Roman-73"/>
     </defs>
     <g transform="translate(16.381875 199.224375)rotate(-90.0)scale(0.12 -0.12)">
      <use xlink:href="#BitstreamVeraSansMono-Roman-6c"/>
      <use x="60.205078125" xlink:href="#BitstreamVeraSansMono-Roman-6f"/>
      <use x="120.41015625" xlink:href="#BitstreamVeraSansMono-Roman-73"/>
      <use x="180.615234375" xlink:href="#BitstreamVeraSansMono-Roman-73"/>
     </g>
    </g>
   </g>
   <g id="patch_3">
    <path d="
M55.2169 13.0387
L400.817 13.0387" style="fill:none;stroke:#000000;"/>
   </g>
   <g id="patch_4">
    <path d="
M400.817 358.639
L400.817 13.0387" style="fill:none;stroke:#000000;"/>
   </g>
   <g id="patch_5">
    <path d="
M55.2169 358.639
L400.817 358.639" style="fill:none;stroke:#000000;"/>
   </g>
   <g id="patch_6">
    <path d="
M55.2169 358.639
L55.2169 13.0387" style="fill:none;stroke:#000000;"/>
   </g>
   <g id="legend_1">
    <g id="patch_7">
     <path d="
M62.4169 351.439
L189.326 351.439
L189.326 293.173
L62.4169 293.173
L62.4169 351.439
z
" style="fill:#ffffff;stroke:#000000;"/>
    </g>
    <g id="line2d_59">
     <path d="
M78.2569 310.671
L98.4169 310.671" style="fill:none;stroke:#aa0000;stroke-linecap:square;stroke-width:2;"/>
    </g>
    <g id="line2d_60"/>
    <g id="text_19">
     <!-- PlainSGD -->
     <defs>
      <path d="
M49.4219 70.4062
L49.4219 60.4062
Q44.9219 63.2812 40.4062 64.75
Q35.8906 66.2188 31.2969 66.2188
Q24.3125 66.2188 20.2656 62.9688
Q16.2188 59.7188 16.2188 54.2031
Q16.2188 49.3594 18.875 46.8125
Q21.5312 44.2812 28.8125 42.5781
L33.9844 41.4062
Q44.2344 39.0156 48.9219 33.8906
Q53.6094 28.7656 53.6094 19.9219
Q53.6094 9.51562 47.1562 4.04688
Q40.7188 -1.42188 28.4219 -1.42188
Q23.2969 -1.42188 18.1094 -0.3125
Q12.9375 0.78125 7.71875 2.98438
L7.71875 13.4844
Q13.3281 9.90625 18.3281 8.25
Q23.3438 6.59375 28.4219 6.59375
Q35.8906 6.59375 40.0312 9.9375
Q44.1875 13.2812 44.1875 19.2812
Q44.1875 24.75 41.3281 27.625
Q38.4844 30.5156 31.3906 32.0781
L26.125 33.2969
Q15.9688 35.5938 11.375 40.2344
Q6.78125 44.875 6.78125 52.6875
Q6.78125 62.4531 13.3438 68.3281
Q19.9219 74.2188 30.8125 74.2188
Q35.0156 74.2188 39.6406 73.2656
Q44.2812 72.3125 49.4219 70.4062" id="BitstreamVeraSansMono-Roman-53"/>
      <path d="
M21.2969 8.10938
Q33.7344 8.10938 38.6719 14.2344
Q43.6094 20.3594 43.6094 36.375
Q43.6094 52.5469 38.7031 58.6719
Q33.7969 64.7969 21.2969 64.7969
L16.6094 64.7969
L16.6094 8.10938
z

M21.4844 72.9062
Q38.1875 72.9062 46.0938 64.0156
Q54 55.125 54 36.375
Q54 17.7188 46.0938 8.85938
Q38.1875 0 21.4844 0
L6.6875 0
L6.6875 72.9062
z
" id="BitstreamVeraSansMono-Roman-44"/>
      <path d="
M19.4844 64.7969
L19.4844 37.4062
L30.9062 37.4062
Q37.75 37.4062 41.5781 41.0156
Q45.4062 44.625 45.4062 51.125
Q45.4062 57.625 41.5938 61.2031
Q37.7969 64.7969 30.9062 64.7969
z

M9.625 72.9062
L30.9062 72.9062
Q43.1094 72.9062 49.4062 67.3594
Q55.7188 61.8125 55.7188 51.125
Q55.7188 40.3281 49.4375 34.8125
Q43.1719 29.2969 30.9062 29.2969
L19.4844 29.2969
L19.4844 0
L9.625 0
z
" id="BitstreamVeraSansMono-Roman-50"/>
      <path d="
M34.2812 27.4844
L31.2969 27.4844
Q23.4375 27.4844 19.4531 24.7188
Q15.4844 21.9688 15.4844 16.5
Q15.4844 11.5781 18.4531 8.84375
Q21.4375 6.10938 26.7031 6.10938
Q34.125 6.10938 38.375 11.25
Q42.625 16.4062 42.6719 25.4844
L42.6719 27.4844
z

M51.7031 31.2031
L51.7031 0
L42.6719 0
L42.6719 8.10938
Q39.7969 3.21875 35.4219 0.890625
Q31.0625 -1.42188 24.8125 -1.42188
Q16.4531 -1.42188 11.4688 3.29688
Q6.5 8.01562 6.5 15.9219
Q6.5 25.0469 12.625 29.7812
Q18.75 34.5156 30.6094 34.5156
L42.6719 34.5156
L42.6719 35.9375
Q42.625 42.4844 39.3438 45.4375
Q36.0781 48.3906 28.9062 48.3906
Q24.3125 48.3906 19.625 47.0625
Q14.9375 45.75 10.5 43.2188
L10.5 52.2031
Q15.4844 54.1094 20.0469 55.0469
Q24.6094 56 28.9062 56
Q35.6875 56 40.5 54
Q45.3125 52 48.2969 48
Q50.1406 45.5625 50.9219 41.9688
Q51.7031 38.375 51.7031 31.2031" id="BitstreamVeraSansMono-Roman-61"/>
      <path d="
M12.5 54.6875
L35.5 54.6875
L35.5 6.98438
L53.3281 6.98438
L53.3281 0
L8.6875 0
L8.6875 6.98438
L26.5156 6.98438
L26.5156 47.7031
L12.5 47.7031
z

M26.5156 75.9844
L35.5 75.9844
L35.5 64.5938
L26.5156 64.5938
z
" id="BitstreamVeraSansMono-Roman-69"/>
      <path d="
M53.9062 6
Q49.9531 2.34375 45 0.453125
Q40.0469 -1.42188 34.2812 -1.42188
Q20.4062 -1.42188 12.6875 8.51562
Q4.98438 18.4531 4.98438 36.375
Q4.98438 54.25 12.7969 64.2344
Q20.6094 74.2188 34.5156 74.2188
Q39.1094 74.2188 43.3125 72.9219
Q47.5156 71.625 51.4219 69
L51.4219 58.8906
Q47.4688 62.6406 43.3125 64.4219
Q39.1562 66.2188 34.5156 66.2188
Q24.9062 66.2188 20.0938 58.7656
Q15.2812 51.3125 15.2812 36.375
Q15.2812 21.1875 19.9375 13.8906
Q24.6094 6.59375 34.2812 6.59375
Q37.5469 6.59375 40.0156 7.34375
Q42.4844 8.10938 44.4844 9.71875
L44.4844 29.2969
L33.8906 29.2969
L33.8906 37.4062
L53.9062 37.4062
z
" id="BitstreamVeraSansMono-Roman-47"/>
      <path d="
M51.3125 33.8906
L51.3125 0
L42.2812 0
L42.2812 33.8906
Q42.2812 41.2656 39.6875 44.7188
Q37.1094 48.1875 31.5938 48.1875
Q25.2969 48.1875 21.8906 43.7188
Q18.5 39.2656 18.5 30.9062
L18.5 0
L9.51562 0
L9.51562 54.6875
L18.5 54.6875
L18.5 46.4844
Q20.9062 51.1719 25 53.5781
Q29.1094 56 34.7188 56
Q43.0625 56 47.1875 50.5
Q51.3125 45.0156 51.3125 33.8906" id="BitstreamVeraSansMono-Roman-6e"/>
     </defs>
     <g transform="translate(109.936875 315.711)scale(0.144 -0.144)">
      <use xlink:href="#BitstreamVeraSansMono-Roman-50"/>
      <use x="60.205078125" xlink:href="#BitstreamVeraSansMono-Roman-6c"/>
      <use x="120.41015625" xlink:href="#BitstreamVeraSansMono-Roman-61"/>
      <use x="180.615234375" xlink:href="#BitstreamVeraSansMono-Roman-69"/>
      <use x="240.8203125" xlink:href="#BitstreamVeraSansMono-Roman-6e"/>
      <use x="301.025390625" xlink:href="#BitstreamVeraSansMono-Roman-53"/>
      <use x="361.23046875" xlink:href="#BitstreamVeraSansMono-Roman-47"/>
      <use x="421.435546875" xlink:href="#BitstreamVeraSansMono-Roman-44"/>
     </g>
    </g>
    <g id="line2d_61">
     <path d="
M78.2569 331.884
L98.4169 331.884" style="fill:none;stroke:#0000aa;stroke-linecap:square;stroke-width:2;"/>
    </g>
    <g id="line2d_62"/>
    <g id="text_20">
     <!-- AdaDelta -->
     <defs>
      <path d="
M30.0781 64.2031
L19.6719 26.9062
L40.4844 26.9062
z

M24.125 72.9062
L36.0781 72.9062
L58.4062 0
L48.1875 0
L42.8281 19
L17.2812 19
L12.0156 0
L1.8125 0
z
" id="BitstreamVeraSansMono-Roman-41"/>
      <path d="
M41.8906 47.7031
L41.8906 75.9844
L50.875 75.9844
L50.875 0
L41.8906 0
L41.8906 6.89062
Q39.6562 2.82812 35.9062 0.703125
Q32.1719 -1.42188 27.2969 -1.42188
Q17.3906 -1.42188 11.6875 6.26562
Q6 13.9688 6 27.4844
Q6 40.8281 11.7188 48.4062
Q17.4375 56 27.2969 56
Q32.2344 56 35.9844 53.875
Q39.75 51.7656 41.8906 47.7031
M15.4844 27.2969
Q15.4844 16.8438 18.7969 11.5156
Q22.125 6.20312 28.6094 6.20312
Q35.1094 6.20312 38.5 11.5625
Q41.8906 16.9375 41.8906 27.2969
Q41.8906 37.7031 38.5 43.0469
Q35.1094 48.3906 28.6094 48.3906
Q22.125 48.3906 18.7969 43.0625
Q15.4844 37.75 15.4844 27.2969" id="BitstreamVeraSansMono-Roman-64"/>
      <path d="
M29.9844 70.2188
L29.9844 54.6875
L50.3906 54.6875
L50.3906 47.7031
L29.9844 47.7031
L29.9844 18.0156
Q29.9844 11.9688 32.2812 9.5625
Q34.5781 7.17188 40.2812 7.17188
L50.3906 7.17188
L50.3906 0
L39.4062 0
Q29.2969 0 25.1406 4.04688
Q21 8.10938 21 18.0156
L21 47.7031
L6.39062 47.7031
L6.39062 54.6875
L21 54.6875
L21 70.2188
z
" id="BitstreamVeraSansMono-Roman-74"/>
     </defs>
     <g transform="translate(109.936875 336.924)scale(0.144 -0.144)">
      <use xlink:href="#BitstreamVeraSansMono-Roman-41"/>
      <use x="60.205078125" xlink:href="#BitstreamVeraSansMono-Roman-64"/>
      <use x="120.41015625" xlink:href="#BitstreamVeraSansMono-Roman-61"/>
      <use x="180.615234375" xlink:href="#BitstreamVeraSansMono-Roman-44"/>
      <use x="240.8203125" xlink:href="#BitstreamVeraSansMono-Roman-65"/>
      <use x="301.025390625" xlink:href="#BitstreamVeraSansMono-Roman-6c"/>
      <use x="361.23046875" xlink:href="#BitstreamVeraSansMono-Roman-74"/>
      <use x="421.435546875" xlink:href="#BitstreamVeraSansMono-Roman-61"/>
     </g>
    </g>
   </g>
  </g>
 </g>
 <defs>
  <clipPath id="p89137f74a4">
   <rect height="345.6" width="345.6" x="55.216875" y="13.03875"/>
  </clipPath>
 </defs>
</svg>
